HIERARCHY
ROOT root
{
	OFFSET 0.000000 0.000000 0.000000
	CHANNELS 6 Xposition Yposition Zposition Zrotation Yrotation Xrotation
	JOINT lhip
	{
		OFFSET 0.058581 -0.082280 -0.017664
		CHANNELS 3 Zrotation Yrotation Xrotation
		JOINT lknee
		{
			OFFSET 0.043451 -0.386469 0.008037
			CHANNELS 3 Zrotation Yrotation Xrotation
			JOINT lankle
			{
				OFFSET -0.014790 -0.426874 -0.037428
				CHANNELS 3 Zrotation Yrotation Xrotation
				JOINT ltoe
				{
					OFFSET 0.041054 -0.060286 0.122042
					CHANNELS 3 Zrotation Yrotation Xrotation
					End Site
					{
						OFFSET 0.000000 0.000000 0.000000
					}
				}
			}
		}
	}
	JOINT rhip
	{
		OFFSET -0.060310 -0.090513 -0.013543
		CHANNELS 3 Zrotation Yrotation Xrotation
		JOINT rknee
		{
			OFFSET -0.043257 -0.383688 -0.004843
			CHANNELS 3 Zrotation Yrotation Xrotation
			JOINT rankle
			{
				OFFSET 0.019056 -0.420046 -0.034562
				CHANNELS 3 Zrotation Yrotation Xrotation
				JOINT rtoe
				{
					OFFSET -0.034840 -0.062106 0.130323
					CHANNELS 3 Zrotation Yrotation Xrotation
					End Site
					{
						OFFSET 0.000000 0.000000 0.000000
					}
				}
			}
		}
	}
	JOINT lowerback
	{
		OFFSET 0.004439 0.124404 -0.038385
		CHANNELS 3 Zrotation Yrotation Xrotation
		JOINT upperback
		{
			OFFSET 0.004488 0.137956 0.026820
			CHANNELS 3 Zrotation Yrotation Xrotation
			JOINT chest
			{
				OFFSET -0.002265 0.056032 0.002855
				CHANNELS 3 Zrotation Yrotation Xrotation
				JOINT lowerneck
				{
					OFFSET -0.013390 0.211636 -0.033468
					CHANNELS 3 Zrotation Yrotation Xrotation
					JOINT upperneck
					{
						OFFSET 0.010113 0.088937 0.050410
						CHANNELS 3 Zrotation Yrotation Xrotation
						End Site
						{
							OFFSET 0.000000 0.000000 0.000000
						}
					}
				}
				JOINT lclavicle
				{
					OFFSET 0.071702 0.114000 -0.018898
					CHANNELS 3 Zrotation Yrotation Xrotation
					JOINT lshoulder
					{
						OFFSET 0.122921 0.045205 -0.019046
						CHANNELS 3 Zrotation Yrotation Xrotation
						JOINT lelbow
						{
							OFFSET 0.255332 -0.015649 -0.022946
							CHANNELS 3 Zrotation Yrotation Xrotation
							JOINT lwrist
							{
								OFFSET 0.265709 0.012698 -0.007375
								CHANNELS 3 Zrotation Yrotation Xrotation
								End Site
								{
									OFFSET 0.000000 0.000000 0.000000
								}
							}
						}
					}
				}
				JOINT rclavicle
				{
					OFFSET -0.082954 0.112472 -0.023707
					CHANNELS 3 Zrotation Yrotation Xrotation
					JOINT rshoulder
					{
						OFFSET -0.113228 0.046853 -0.008472
						CHANNELS 3 Zrotation Yrotation Xrotation
						JOINT relbow
						{
							OFFSET -0.260127 -0.014369 -0.031269
							CHANNELS 3 Zrotation Yrotation Xrotation
							JOINT rwrist
							{
								OFFSET -0.269108 0.006794 -0.006027
								CHANNELS 3 Zrotation Yrotation Xrotation
								End Site
								{
									OFFSET 0.000000 0.000000 0.000000
								}
							}
						}
					}
				}
			}
		}
	}
}
MOTION
Frames: 5
Frame Time: 0.033333
0.037103 -1.781378 0.980105 -159.055525 0.840778 90.698351 8.466174 0.007302 -9.492348 -3.832846 -6.746363 11.436787 2.253387 7.805474 -13.941060 0.000000 -0.000000 0.000000 -4.097151 -9.650758 -2.442862 2.480098 -11.178585 9.612463 -0.986654 -7.684891 -10.990137 0.000000 -0.000000 0.000000 1.232774 2.671848 11.619243 0.356248 -1.083466 2.656373 -0.122722 -0.304118 3.128996 4.137402 -14.463481 -1.014092 6.898310 -15.512891 3.187453 -31.303234 2.070703 6.283875 -50.455078 0.039999 18.355101 -3.045791 -88.442360 14.104442 32.687994 1.340012 -19.886040 26.116069 8.913917 5.529440 53.825525 2.448639 25.061969 51.600416 76.646774 63.583328 -26.020637 12.201291 -8.694423 
0.036213 -1.783205 0.979939 -158.641537 0.907309 91.002694 8.625565 0.181168 -10.589094 -4.398719 -6.321566 12.414329 2.341249 7.604928 -13.619349 0.000000 -0.000000 0.000000 -4.024103 -9.172419 -2.761146 2.619313 -11.197276 9.410552 -0.411867 -8.724365 -11.011588 0.000000 -0.000000 0.000000 1.128240 2.908651 11.960688 0.663048 -1.091717 2.974971 -0.038417 -0.328359 3.138799 4.618269 -14.382229 -1.941114 6.734265 -16.089826 3.080827 -30.968387 2.108435 6.280484 -50.191690 -0.121471 18.560599 -13.516786 -88.301267 25.295405 31.941927 1.049588 -20.691759 26.044057 8.866260 5.473697 53.530971 3.174718 24.843066 49.838135 76.524840 63.603594 -24.829016 13.414431 -7.374602 
0.034657 -1.784515 0.980186 -158.173535 1.005301 91.180791 8.479435 0.109115 -11.296549 -4.413331 -6.347576 13.189173 2.582146 7.364258 -14.076837 0.000000 -0.000000 0.000000 -3.931585 -9.281901 -2.976435 2.543074 -11.478727 9.398443 -0.375417 -9.002410 -11.117630 0.000000 -0.000000 0.000000 1.250399 3.071805 12.691452 0.746631 -1.019097 2.729441 0.105844 -0.315708 3.156563 4.809340 -14.618397 -2.058335 6.914839 -16.508843 2.718455 -30.871153 1.927974 6.350710 -49.679488 0.195676 18.629677 -30.260135 -88.463563 41.853084 32.245599 1.230099 -20.334360 25.951483 9.126695 5.565322 53.837146 2.612671 25.057886 50.107369 76.655879 62.705833 -25.959753 12.782456 -7.972968 
0.032372 -1.786340 0.980277 -157.945722 1.105897 91.367434 8.420908 0.028481 -11.820064 -4.474738 -6.432250 13.626436 2.606942 7.359924 -13.980362 0.000000 -0.000000 0.000000 -3.971611 -9.562374 -3.425031 2.578677 -11.684461 9.735600 -0.443587 -8.925190 -11.347169 0.000000 -0.000000 0.000000 1.283803 3.236837 13.524203 0.810859 -0.869004 2.752847 0.266867 -0.131844 3.073885 4.839175 -14.529895 -1.965094 7.034779 -16.396852 2.479188 -30.644630 1.963694 6.320546 -49.497466 0.339585 18.594543 -46.752919 -88.672810 58.602074 32.386826 1.148298 -20.271082 25.959621 9.372127 5.720213 53.940238 2.849903 24.925322 49.714663 76.611577 62.474292 -25.620765 13.070648 -7.705584 
0.031008 -1.786815 0.980168 -158.043281 1.271182 91.614250 8.480723 -0.036207 -12.192809 -4.482564 -6.373885 13.958028 2.668520 7.418007 -14.422608 0.000000 -0.000000 0.000000 -3.832725 -9.386340 -3.813220 2.557208 -11.720988 9.889516 -0.499089 -8.973606 -11.434585 0.000000 -0.000000 0.000000 1.247394 3.393207 13.654304 0.910175 -0.610563 2.829719 0.445005 0.074240 3.182077 4.981841 -14.615373 -1.981394 7.215904 -16.617041 1.920852 -30.604704 2.038779 6.140054 -49.446715 0.362206 18.704242 -55.671689 -88.738374 67.753159 32.904477 1.129431 -19.942969 25.967805 9.487978 5.757704 53.975019 3.033951 24.850203 49.146646 76.557824 62.026784 -25.950238 13.414267 -7.447771 
